<svg viewBox="0 0 80 80" fill="none" xmlns="http://www.w3.org/2000/svg">
  <circle cx="40" cy="40" r="38" fill="none" stroke="url(#modernGradient)" stroke-width="1" opacity="0.15" stroke-dasharray="4 2" />
  <circle cx="40" cy="40" r="34" fill="none" stroke="url(#modernGradient)" stroke-width="1.5" opacity="0.25" />
  <rect x="8" y="8" width="64" height="64" rx="16" fill="url(#modernPrimaryGradient)" stroke="url(#modernAccentGradient)" stroke-width="1.2" filter="url(#modernShadow)" />
  <rect x="14" y="14" width="52" height="52" rx="10" fill="none" stroke="url(#modernInnerGradient)" stroke-width="0.8" opacity="0.4" />
  <g transform="translate(40, 40)">
    <path d="M-18 -16 L-18 16 M-18 -16 L0 8 M0 8 L18 -16 M18 -16 L18 16" stroke="#065f46" stroke-width="4" stroke-linecap="round" stroke-linejoin="round" fill="none" filter="url(#modernTextShadow)" />
    <path d="M-16 -12 L-6 4 M6 4 L16 -12" stroke="#10b981" stroke-width="2" stroke-linecap="round" opacity="0.8" />
    <path d="M-18 14 L-10 14 M10 14 L18 14" stroke="#059669" stroke-width="3" stroke-linecap="round" opacity="0.9" />
    <circle cx="0" cy="4" r="2" fill="url(#modernPointGradient)" filter="url(#modernTextShadow)" />
    <rect x="-20" y="12" width="4" height="2" rx="1" fill="#10b981" opacity="0.7"/>
    <rect x="16" y="12" width="4" height="2" rx="1" fill="#10b981" opacity="0.7"/>
  </g>
  <g opacity="0.3">
    <rect x="12" y="12" width="6" height="1.5" rx="0.75" fill="#059669"/>
    <rect x="62" y="12" width="6" height="1.5" rx="0.75" fill="#059669"/>
    <rect x="12" y="66.5" width="6" height="1.5" rx="0.75" fill="#059669"/>
    <rect x="62" y="66.5" width="6" height="1.5" rx="0.75" fill="#059669"/>
  </g>
  <defs>
    <linearGradient id="modernPrimaryGradient" x1="0%" y1="0%" x2="100%" y2="100%">
      <stop offset="0%" stop-color="#f0fdf4" stop-opacity="0.95"/>
      <stop offset="50%" stop-color="#dcfce7" stop-opacity="0.9"/>
      <stop offset="100%" stop-color="#bbf7d0" stop-opacity="0.85"/>
    </linearGradient>
    <linearGradient id="modernGradient" x1="0%" y1="0%" x2="100%" y2="100%">
      <stop offset="0%" stop-color="#10b981"/>
      <stop offset="100%" stop-color="#059669"/>
    </linearGradient>
    <linearGradient id="modernAccentGradient" x1="0%" y1="0%" x2="100%" y2="100%">
      <stop offset="0%" stop-color="#34d399"/>
      <stop offset="100%" stop-color="#10b981"/>
    </linearGradient>
    <linearGradient id="modernInnerGradient" x1="0%" y1="0%" x2="100%" y2="100%">
      <stop offset="0%" stop-color="#6ee7b7" stop-opacity="0.6"/>
      <stop offset="100%" stop-color="#34d399" stop-opacity="0.4"/>
    </linearGradient>
    <radialGradient id="modernPointGradient" cx="50%" cy="50%" r="50%">
      <stop offset="0%" stop-color="#10b981"/>
      <stop offset="100%" stop-color="#065f46"/>
    </radialGradient>
    <filter id="modernShadow" x="-20%" y="-20%" width="140%" height="140%">
      <feDropShadow dx="0" dy="3" stdDeviation="4" flood-color="#065f46" flood-opacity="0.12"/>
    </filter>
    <filter id="modernTextShadow" x="-20%" y="-20%" width="140%" height="140%">
      <feDropShadow dx="0" dy="1" stdDeviation="1.5" flood-color="#065f46" flood-opacity="0.25"/>
    </filter>
  </defs>
</svg>
